<?xml version="1.0" encoding="iso-8859-1"?>
<!-- Generator: Adobe Illustrator 19.0.0, SVG Export Plug-In . SVG Version: 6.00 Build 0)  -->
<svg version="1.1" id="Layer_1" xmlns="http://www.w3.org/2000/svg" xmlns:xlink="http://www.w3.org/1999/xlink" x="0px" y="0px"
	 viewBox="0 0 512 512" style="enable-background:new 0 0 512 512;" xml:space="preserve">
<path style="fill:#20AB6C;" d="M141.011,291.846h-37.786c0-34.389,12.919-79.295,35.443-123.206
	c27.335-53.286,67.051-101.971,114.859-140.793c4.717-3.829,10.989-5.155,16.848-3.57c5.864,1.588,10.606,5.899,12.745,11.585
	c11.478,30.51,84.79,137.158,125.752,173.851l-25.213,28.145c-29.364-26.305-65.569-75.755-79.773-95.794
	c-15.312-21.604-32.781-48.021-44.64-69.298C173.49,151.018,141.011,246.952,141.011,291.846z"/>
<path style="opacity:0.1;enable-background:new    ;" d="M141.011,291.846h-37.786c0-34.389,12.919-79.295,35.443-123.206
	c27.335-53.286,67.051-101.971,114.859-140.793c4.717-3.829,10.989-5.155,16.848-3.57c5.864,1.588,10.606,5.899,12.745,11.585
	c11.478,30.51,84.79,137.158,125.752,173.851l-25.213,28.145c-29.364-26.305-65.569-75.755-79.773-95.794
	c-15.312-21.604-32.781-48.021-44.64-69.298C173.49,151.018,141.011,246.952,141.011,291.846z"/>
<path style="opacity:0.1;enable-background:new    ;" d="M262.801,34.755c-3.643-1.358-7.844-2.818-12.477-4.273
	c-42.963,35.555-79.208,79.099-105.556,126.729c12.71-1.02,25.616-3.646,38.121-8.611c5.975-2.372,11.654-5.194,17.04-8.365
	c15.999-22.874,35.62-45.847,59.317-67.471c0.636,1.141,1.296,2.303,1.962,3.472c4.303-7.099,7.787-13.649,10.477-19.106
	C275.936,48.507,271.809,38.113,262.801,34.755z"/>
<circle style="fill:#E3637B;" cx="122.12" cy="392.36" r="119.64"/>
<path style="opacity:0.1;enable-background:new    ;" d="M130.683,503.435c-66.074,0-119.638-53.564-119.638-119.638
	c0-30.858,11.685-58.985,30.869-80.204C17.698,325.486,2.48,357.146,2.48,392.362C2.479,458.436,56.043,512,122.118,512
	c35.216,0,66.876-15.218,88.769-39.434C189.668,491.75,161.541,503.435,130.683,503.435z"/>
<g>
	<path style="fill:#394049;" d="M44.856,389.04c-4.143,0-7.5-3.357-7.5-7.5v-13.583c0-4.142,3.357-7.5,7.5-7.5s7.5,3.358,7.5,7.5
		v13.583C52.356,385.683,48.999,389.04,44.856,389.04z"/>
	<path style="fill:#394049;" d="M199.38,389.04c-4.143,0-7.5-3.357-7.5-7.5v-13.583c0-4.142,3.357-7.5,7.5-7.5s7.5,3.358,7.5,7.5
		v13.583C206.88,385.683,203.523,389.04,199.38,389.04z"/>
</g>
<g>
	<path style="fill:#FFFFFF;" d="M55.542,413.832H34.17c-4.143,0-7.5-3.357-7.5-7.5c0-4.142,3.357-7.5,7.5-7.5h21.372
		c4.143,0,7.5,3.358,7.5,7.5C63.042,410.475,59.685,413.832,55.542,413.832z"/>
	<path style="fill:#FFFFFF;" d="M210.065,413.832h-21.372c-4.143,0-7.5-3.357-7.5-7.5c0-4.142,3.357-7.5,7.5-7.5h21.372
		c4.143,0,7.5,3.358,7.5,7.5C217.565,410.475,214.208,413.832,210.065,413.832z"/>
</g>
<path style="fill:#394049;" d="M134.595,401.518c-4.716,0-9.056-1.643-12.477-4.387c-3.422,2.744-7.761,4.387-12.478,4.387
	c-11.016,0-19.978-8.962-19.978-19.978c0-4.142,3.357-7.5,7.5-7.5s7.5,3.358,7.5,7.5c0,2.745,2.233,4.978,4.978,4.978
	c2.744,0,4.978-2.232,4.978-4.978c0-4.142,3.357-7.5,7.5-7.5c4.142,0,7.5,3.358,7.5,7.5c0,2.745,2.232,4.978,4.977,4.978
	c2.745,0,4.978-2.232,4.978-4.978c0-4.142,3.357-7.5,7.5-7.5s7.5,3.358,7.5,7.5C154.572,392.556,145.61,401.518,134.595,401.518z"/>
<circle style="fill:#E3637B;" cx="389.88" cy="320.9" r="119.64"/>
<path style="opacity:0.1;enable-background:new    ;" d="M398.447,431.974c-66.074,0-119.638-53.564-119.638-119.639
	c0-30.858,11.685-58.985,30.869-80.204c-24.216,21.893-39.434,53.553-39.434,88.769c0,66.075,53.564,119.639,119.638,119.639
	c35.216,0,66.876-15.218,88.769-39.434C457.432,420.289,429.305,431.974,398.447,431.974z"/>
<g>
	<path style="fill:#394049;" d="M312.62,317.579c-4.143,0-7.5-3.357-7.5-7.5v-13.583c0-4.143,3.357-7.5,7.5-7.5s7.5,3.357,7.5,7.5
		v13.583C320.12,314.222,316.763,317.579,312.62,317.579z"/>
	<path style="fill:#394049;" d="M467.144,317.579c-4.143,0-7.5-3.357-7.5-7.5v-13.583c0-4.143,3.357-7.5,7.5-7.5
		c4.142,0,7.5,3.357,7.5,7.5v13.583C474.644,314.222,471.286,317.579,467.144,317.579z"/>
</g>
<g>
	<path style="fill:#FFFFFF;" d="M323.307,342.371h-21.372c-4.143,0-7.5-3.357-7.5-7.5s3.357-7.5,7.5-7.5h21.372
		c4.143,0,7.5,3.357,7.5,7.5S327.449,342.371,323.307,342.371z"/>
	<path style="fill:#FFFFFF;" d="M477.83,342.371h-21.372c-4.143,0-7.5-3.357-7.5-7.5s3.357-7.5,7.5-7.5h21.372
		c4.143,0,7.5,3.357,7.5,7.5S481.973,342.371,477.83,342.371z"/>
</g>
<path style="fill:#394049;" d="M402.359,330.057c-4.717,0-9.056-1.642-12.478-4.387c-3.421,2.744-7.761,4.387-12.477,4.387
	c-11.016,0-19.978-8.962-19.978-19.978c0-4.143,3.358-7.5,7.5-7.5c4.143,0,7.5,3.357,7.5,7.5c0,2.745,2.233,4.978,4.978,4.978
	c2.744,0,4.977-2.232,4.977-4.978c0-4.143,3.358-7.5,7.5-7.5c4.143,0,7.5,3.357,7.5,7.5c0,2.745,2.233,4.978,4.978,4.978
	c2.744,0,4.978-2.232,4.978-4.978c0-4.143,3.357-7.5,7.5-7.5s7.5,3.357,7.5,7.5C422.337,321.095,413.375,330.057,402.359,330.057z"
	/>
<path style="fill:#20AB6C;" d="M277.788,21.587c8.701,4.09,11.956,14.789,7.008,23.032c-14.286,23.799-46.902,68.881-96.039,83.832
	s-101.335-4.324-126.456-16.133c-8.701-4.09-11.956-14.789-7.008-23.032c14.286-23.799,46.902-68.881,96.039-83.832
	S252.668,9.778,277.788,21.587z"/>
<path style="opacity:0.2;enable-background:new    ;" d="M118.222,90.222c-3.215,0-6.188-2.084-7.172-5.318
	c-1.206-3.963,1.028-8.153,4.991-9.358l103.64-31.535c3.959-1.207,8.152,1.029,9.358,4.991c1.206,3.963-1.028,8.153-4.991,9.358
	l-103.64,31.535C119.681,90.116,118.945,90.222,118.222,90.222z"/>
<g>
</g>
<g>
</g>
<g>
</g>
<g>
</g>
<g>
</g>
<g>
</g>
<g>
</g>
<g>
</g>
<g>
</g>
<g>
</g>
<g>
</g>
<g>
</g>
<g>
</g>
<g>
</g>
<g>
</g>
</svg>
