<?xml version="1.0" encoding="iso-8859-1"?>
<!-- Generator: Adobe Illustrator 19.0.0, SVG Export Plug-In . SVG Version: 6.00 Build 0)  -->
<svg version="1.1" id="Layer_1" xmlns="http://www.w3.org/2000/svg" xmlns:xlink="http://www.w3.org/1999/xlink" x="0px" y="0px"
	 viewBox="0 0 512 512" style="enable-background:new 0 0 512 512;" xml:space="preserve">
<path style="fill:#8D6A59;" d="M511.652,416.948l-45.947-290.702c-3.577-22.63-23.083-39.295-45.994-39.295l0,0
	c-5.425,0-10.687-2.199-14.265-6.278c-9.338-10.646-27.306-17.854-47.944-17.854c-18.172,0-34.27,5.59-44.231,14.193
	c-3.758,3.245-9.282,3.245-13.039,0c-9.962-8.603-26.059-14.193-44.231-14.193s-34.269,5.59-44.231,14.193
	c-3.758,3.245-9.282,3.245-13.039,0c-9.962-8.603-26.059-14.193-44.231-14.193c-20.638,0-38.607,7.208-47.944,17.854
	c-3.577,4.078-8.84,6.277-14.265,6.277l0,0c-22.911,0-42.417,16.666-45.994,39.296L0.348,416.948
	c-2.675,16.924,10.405,32.233,27.539,32.233h456.226C501.247,449.181,514.327,433.871,511.652,416.948z"/>
<path style="opacity:0.1;enable-background:new    ;" d="M499.502,435.015H43.276c-17.134,0-30.214-15.309-27.539-32.233
	L61.684,112.08c1.11-7.02,3.754-13.463,7.555-19.016c-11.943,6.814-20.669,18.787-22.944,33.182L0.348,416.948
	c-2.675,16.924,10.405,32.233,27.539,32.233h456.226c11.26,0,20.767-6.612,25.205-15.948
	C506.276,434.377,502.975,435.015,499.502,435.015z"/>
<path style="opacity:0.1;enable-background:new    ;" d="M311.743,403.839c0,17.218-13.958,31.176-31.176,31.176
	s-31.176-13.958-31.176-31.176V289.44h62.352V403.839z"/>
<path style="opacity:0.1;enable-background:new    ;" d="M404.036,381.955c0,17.218-13.958,31.176-31.176,31.176
	s-31.176-13.958-31.176-31.176V267.557h62.352V381.955z"/>
<path style="fill:#F5D96C;" d="M435.56,323.343l-23.776-150.432c-2.313-14.635-14.929-25.414-29.746-25.414H129.964
	c-14.817,0-27.433,10.778-29.746,25.414L76.441,323.343c-2.816,17.817,10.954,33.935,28.992,33.935H256v35.619
	c0,17.218,13.958,31.176,31.176,31.176s31.176-13.958,31.176-31.176v-35.619h29.94v13.735c0,17.218,13.958,31.176,31.176,31.176
	s31.176-13.958,31.176-31.176v-14.026C426.622,354.777,438.159,339.79,435.56,323.343z"/>
<path style="opacity:0.1;enable-background:new    ;" d="M411.783,172.911c-2.313-14.635-14.929-25.414-29.746-25.414H129.964
	c-14.817,0-27.433,10.778-29.746,25.414l-0.497,3.142c5.781-7.214,14.852-11.776,24.897-11.776h262.764
	c10.045,0,19.116,4.562,24.897,11.776L411.783,172.911z"/>
<g>
	<path style="fill:#394049;" d="M165.061,261.875c-3.536,0-6.683-2.511-7.362-6.113l-2.97-15.763
		c-0.767-4.071,1.911-7.992,5.981-8.759c4.075-0.766,7.993,1.911,8.759,5.981l2.97,15.763c0.767,4.071-1.911,7.992-5.982,8.759
		C165.988,261.832,165.521,261.875,165.061,261.875z"/>
	<path style="fill:#394049;" d="M345.627,227.344c-4.031,0-7.361-3.202-7.491-7.26l-0.514-16.032
		c-0.133-4.14,3.116-7.604,7.256-7.736c4.1-0.119,7.603,3.115,7.736,7.256l0.514,16.032c0.133,4.14-3.116,7.603-7.256,7.736
		C345.79,227.342,345.708,227.344,345.627,227.344z"/>
</g>
<g>
	<path style="fill:#E3637B;" d="M158.081,292.981c-3.536,0-6.684-2.511-7.362-6.113c-0.767-4.07,1.911-7.992,5.981-8.759
		l24.802-4.673c4.068-0.768,7.992,1.911,8.759,5.981c0.767,4.07-1.911,7.992-5.981,8.759l-24.802,4.673
		C159.008,292.939,158.541,292.981,158.081,292.981z"/>
	<path style="fill:#E3637B;" d="M333.95,257.009c-4.031,0-7.361-3.202-7.491-7.26c-0.133-4.14,3.116-7.604,7.256-7.736l25.226-0.807
		c4.127-0.144,7.604,3.115,7.736,7.256c0.133,4.14-3.116,7.603-7.256,7.736l-25.226,0.807
		C334.113,257.007,334.031,257.009,333.95,257.009z"/>
</g>
<path style="fill:#394049;" d="M240.24,262.444c-10.478,0.001-19.831-7.456-21.841-18.12c-0.767-4.07,1.911-7.992,5.982-8.759
	c4.075-0.768,7.993,1.911,8.759,5.982c0.358,1.899,1.434,3.545,3.03,4.635c1.595,1.09,3.52,1.491,5.419,1.135
	c3.92-0.739,6.508-4.529,5.77-8.449c-0.088-0.469-0.131-0.936-0.131-1.396c0-3.536,2.511-6.684,6.113-7.362
	c4.067-0.766,7.992,1.911,8.759,5.981c0.358,1.899,1.434,3.545,3.029,4.635c1.596,1.089,3.518,1.493,5.42,1.135
	c3.92-0.739,6.508-4.529,5.77-8.449c-0.768-4.07,1.911-7.992,5.981-8.759c4.063-0.768,7.992,1.911,8.759,5.982
	c1.1,5.836-0.139,11.751-3.488,16.656s-8.407,8.211-14.244,9.311c-5.551,1.046-11.014-0.079-15.516-2.771
	c-3.214,4.147-7.895,7.182-13.443,8.228C242.981,262.318,241.601,262.444,240.24,262.444z"/>
<g>
</g>
<g>
</g>
<g>
</g>
<g>
</g>
<g>
</g>
<g>
</g>
<g>
</g>
<g>
</g>
<g>
</g>
<g>
</g>
<g>
</g>
<g>
</g>
<g>
</g>
<g>
</g>
<g>
</g>
</svg>
