<?xml version="1.0" encoding="iso-8859-1"?>
<!-- Generator: Adobe Illustrator 19.0.0, SVG Export Plug-In . SVG Version: 6.00 Build 0)  -->
<svg version="1.1" id="Layer_1" xmlns="http://www.w3.org/2000/svg" xmlns:xlink="http://www.w3.org/1999/xlink" x="0px" y="0px"
	 viewBox="0 0 512 512" style="enable-background:new 0 0 512 512;" xml:space="preserve">
<path style="fill:#F5B96E;" d="M255.998,54.768c-88.898,0-171.708,26.022-241.262,70.844C-1.089,135.809-4.763,157.4,6.621,172.394
	l229.464,302.219c10.005,13.177,29.816,13.183,39.821,0.006c45.224-59.563,157.353-207.244,229.474-302.232
	c11.383-14.992,7.707-36.577-8.116-46.773C427.709,80.791,344.898,54.768,255.998,54.768z"/>
<path style="opacity:0.1;enable-background:new    ;" d="M255.998,54.768c-88.898,0-171.708,26.022-241.262,70.844
	C-1.089,135.809-4.763,157.4,6.621,172.394l229.464,302.219c10.005,13.177,29.816,13.183,39.821,0.006
	c45.224-59.563,157.353-207.244,229.474-302.232c11.383-14.992,7.707-36.577-8.116-46.773
	C427.709,80.791,344.898,54.768,255.998,54.768z"/>
<path style="fill:#F9EFD1;" d="M404.681,64.433c-30.291,0-56.396,17.864-68.396,43.624c-11.628-7.327-25.387-11.583-40.146-11.583
	c-5.851,0-11.537,0.688-17.005,1.949c-2.334-39.558-35.14-70.921-75.284-70.921c-29.534,0-55.087,16.984-67.469,41.708
	c-8.23-3.081-17.136-4.776-26.441-4.776c-41.659,0-75.43,33.771-75.43,75.43s33.771,75.429,75.43,75.429
	c29.534,0,55.087-16.984,67.469-41.708c8.23,3.081,17.136,4.777,26.441,4.777c5.85,0,11.537-0.688,17.005-1.949
	c2.333,39.558,35.14,70.921,75.284,70.921c30.291,0,56.397-17.864,68.396-43.623c11.628,7.327,25.387,11.583,40.146,11.583
	c41.659,0,75.43-33.771,75.43-75.429C480.111,98.204,446.34,64.433,404.681,64.433z"/>
<path style="opacity:0.05;enable-background:new    ;" d="M255.999,112.082c-78.481,0-151.528,23.26-212.63,63.256
	c12.695,23.772,37.739,39.955,66.571,39.955c29.534,0,55.087-16.984,67.469-41.708c8.23,3.081,17.136,4.776,26.441,4.776
	c5.851,0,11.537-0.688,17.005-1.949c2.333,39.558,35.14,70.921,75.284,70.921c30.291,0,56.397-17.864,68.397-43.624
	c11.628,7.327,25.386,11.583,40.146,11.583c28.315,0,52.972-15.611,65.872-38.686C409.063,135.834,335.306,112.082,255.999,112.082z
	"/>
<path style="fill:#F5B96E;" d="M255.998,127.769c-84.783,0-162.945,28.3-225.598,75.944l205.681,270.895
	c10.007,13.18,29.821,13.187,39.828,0.007c40.503-53.344,134.66-177.356,205.687-270.902
	C418.944,156.069,340.781,127.769,255.998,127.769z"/>
<g>
	<path style="fill:#394049;" d="M269.491,255.684c-5.133,0-9.842-1.852-13.493-4.923c-3.651,3.07-8.36,4.923-13.493,4.923
		c-11.575,0-20.993-9.418-20.993-20.994c0-4.143,3.357-7.5,7.5-7.5s7.5,3.357,7.5,7.5c0,3.305,2.688,5.994,5.993,5.994
		s5.993-2.689,5.993-5.994c0-4.143,3.357-7.5,7.5-7.5s7.5,3.357,7.5,7.5c0,3.305,2.689,5.994,5.993,5.994
		c3.306,0,5.994-2.689,5.994-5.994c0-4.143,3.357-7.5,7.5-7.5c4.142,0,7.5,3.357,7.5,7.5
		C290.485,246.266,281.067,255.684,269.491,255.684z"/>
	<path style="fill:#394049;" d="M172.445,242.189c-4.143,0-7.5-3.357-7.5-7.5V220c0-4.143,3.357-7.5,7.5-7.5s7.5,3.357,7.5,7.5
		v14.689C179.945,238.832,176.588,242.189,172.445,242.189z"/>
</g>
<g>
	<path style="fill:#E3637B;" d="M184.002,269.001h-23.113c-4.143,0-7.5-3.357-7.5-7.5s3.357-7.5,7.5-7.5h23.113
		c4.143,0,7.5,3.357,7.5,7.5S188.145,269.001,184.002,269.001z"/>
	<path style="fill:#E3637B;" d="M351.107,269.001h-23.112c-4.143,0-7.5-3.357-7.5-7.5s3.357-7.5,7.5-7.5h23.112
		c4.143,0,7.5,3.357,7.5,7.5S355.25,269.001,351.107,269.001z"/>
</g>
<path style="fill:#394049;" d="M339.551,242.189c-4.143,0-7.5-3.357-7.5-7.5V220c0-4.143,3.357-7.5,7.5-7.5s7.5,3.357,7.5,7.5
	v14.689C347.051,238.832,343.693,242.189,339.551,242.189z"/>
<g style="opacity:0.1;">
	<circle cx="197.86" cy="349.96" r="7.463"/>
	<circle cx="270.04" cy="401.43" r="7.463"/>
	<circle cx="310.15" cy="312.67" r="7.463"/>
	<circle cx="407.23" cy="200.57" r="7.463"/>
	<circle cx="225.32" cy="159.44" r="7.463"/>
	<circle cx="95.28" cy="217.75" r="7.463"/>
</g>
<g>
</g>
<g>
</g>
<g>
</g>
<g>
</g>
<g>
</g>
<g>
</g>
<g>
</g>
<g>
</g>
<g>
</g>
<g>
</g>
<g>
</g>
<g>
</g>
<g>
</g>
<g>
</g>
<g>
</g>
</svg>
