<?xml version="1.0" encoding="iso-8859-1"?>
<!-- Generator: Adobe Illustrator 19.0.0, SVG Export Plug-In . SVG Version: 6.00 Build 0)  -->
<svg version="1.1" id="Layer_1" xmlns="http://www.w3.org/2000/svg" xmlns:xlink="http://www.w3.org/1999/xlink" x="0px" y="0px"
	 viewBox="0 0 512 512" style="enable-background:new 0 0 512 512;" xml:space="preserve">
<path style="fill:#F5B96E;" d="M256,0C114.615,0,0,114.615,0,256s114.615,256,256,256s256-114.615,256-256S397.385,0,256,0z
	 M256,371.251c-63.651,0-115.251-51.6-115.251-115.251S192.349,140.749,256,140.749S371.251,192.349,371.251,256
	S319.651,371.251,256,371.251z"/>
<path style="opacity:0.1;enable-background:new    ;" d="M264.675,502.169c-141.385,0-256-114.615-256-256
	c0-62.538,22.436-119.828,59.683-164.289C25.946,127.564,0,188.748,0,256c0,141.385,114.615,256,256,256
	c78.847,0,149.357-35.656,196.317-91.711C405.567,470.646,338.807,502.169,264.675,502.169z"/>
<path style="fill:#8D6A59;" d="M488.976,281.818c-10.087-15.734-10.087-35.901,0-51.635l0,0
	c15.205-23.718,6.723-55.374-18.304-68.312l0,0c-16.602-8.583-26.686-26.048-25.818-44.717l0,0
	c1.309-28.143-21.865-51.317-50.008-50.008c-18.669,0.868-36.135-9.215-44.717-25.817l0,0
	c-12.938-25.027-44.594-33.509-68.312-18.304l0,0c-15.734,10.087-35.901,10.087-51.635,0l0,0
	c-23.718-15.205-55.374-6.723-68.312,18.304l0,0c-8.582,16.602-26.048,26.686-44.717,25.817
	c-28.143-1.31-51.317,21.864-50.007,50.007l0,0c0.868,18.669-9.215,36.135-25.818,44.717l0,0
	c-25.027,12.938-33.509,44.594-18.304,68.312l0,0c10.087,15.734,10.087,35.901,0,51.635l0,0
	c-15.205,23.718-6.723,55.374,18.304,68.312l0,0c16.602,8.582,26.686,26.048,25.818,44.717l0,0
	c-1.309,28.143,21.865,51.317,50.008,50.008c18.669-0.868,36.135,9.215,44.717,25.817l0,0
	c12.938,25.027,44.594,33.509,68.312,18.304l0,0c15.734-10.087,35.901-10.087,51.635,0l0,0
	c23.718,15.205,55.374,6.723,68.312-18.304l0,0c8.582-16.602,26.048-26.686,44.717-25.817c28.143,1.309,51.317-21.865,50.008-50.008
	l0,0c-0.868-18.669,9.215-36.135,25.818-44.717l0,0C495.699,337.192,504.182,305.535,488.976,281.818L488.976,281.818z M256,371.251
	c-63.651,0-115.251-51.6-115.251-115.251S192.349,140.749,256,140.749S371.251,192.349,371.251,256S319.651,371.251,256,371.251z"/>
<g>
	<path style="fill:#394049;" d="M194.158,420.574c-4.143,0-7.5-3.358-7.5-7.5c0-2.579-2.098-4.677-4.677-4.677
		s-4.677,2.098-4.677,4.677c0,4.142-3.357,7.5-7.5,7.5s-7.5-3.358-7.5-7.5c0-10.85,8.827-19.677,19.677-19.677
		s19.677,8.827,19.677,19.677C201.658,417.216,198.301,420.574,194.158,420.574z"/>
	<path style="fill:#394049;" d="M342.195,420.574c-4.143,0-7.5-3.358-7.5-7.5c0-2.579-2.098-4.677-4.677-4.677
		s-4.677,2.098-4.677,4.677c0,4.142-3.357,7.5-7.5,7.5s-7.5-3.358-7.5-7.5c0-10.85,8.827-19.677,19.677-19.677
		s19.677,8.827,19.677,19.677C349.695,417.216,346.338,420.574,342.195,420.574z"/>
</g>
<g>
	<path style="fill:#E8A8C2;" d="M192.22,444.743h-20.476c-4.143,0-7.5-3.358-7.5-7.5s3.357-7.5,7.5-7.5h20.476
		c4.143,0,7.5,3.358,7.5,7.5S196.362,444.743,192.22,444.743z"/>
	<path style="fill:#E8A8C2;" d="M340.256,444.743H319.78c-4.143,0-7.5-3.358-7.5-7.5s3.357-7.5,7.5-7.5h20.476
		c4.143,0,7.5,3.358,7.5,7.5S344.398,444.743,340.256,444.743z"/>
</g>
<path style="fill:#394049;" d="M267.953,432.945c-4.502,0-8.653-1.538-11.953-4.116c-3.3,2.578-7.451,4.116-11.953,4.116
	c-10.727,0-19.454-8.727-19.454-19.454c0-4.142,3.357-7.5,7.5-7.5s7.5,3.358,7.5,7.5c0,2.456,1.998,4.454,4.454,4.454
	c2.455,0,4.453-1.998,4.453-4.454c0-4.142,3.357-7.5,7.5-7.5s7.5,3.358,7.5,7.5c0,2.456,1.998,4.454,4.453,4.454
	c2.456,0,4.454-1.998,4.454-4.454c0-4.142,3.357-7.5,7.5-7.5s7.5,3.358,7.5,7.5C287.407,424.218,278.68,432.945,267.953,432.945z"/>
<path style="fill:#FFFFFF;" d="M84.649,249.873c-1.919,0-3.839-0.732-5.303-2.197L48.8,217.131c-2.93-2.929-2.93-7.677-0.001-10.606
	c2.93-2.929,7.679-2.93,10.606,0l30.546,30.545c2.93,2.929,2.93,7.677,0.001,10.607C88.488,249.14,86.568,249.873,84.649,249.873z"
	/>
<path style="fill:#E8A8C2;" d="M131.707,131.109c-1.919,0-3.839-0.732-5.304-2.197c-2.929-2.929-2.929-7.678,0-10.606l30.545-30.545
	c2.93-2.929,7.678-2.929,10.607,0s2.929,7.678,0,10.606l-30.545,30.545C135.546,130.377,133.626,131.109,131.707,131.109z"/>
<g>
	<path style="fill:#F5DF5D;" d="M76.964,350.731c-1.919,0-3.839-0.732-5.304-2.197c-2.929-2.929-2.929-7.678,0-10.607l30.545-30.545
		c2.93-2.929,7.678-2.929,10.607,0s2.929,7.678,0,10.607l-30.545,30.545C80.803,349.999,78.883,350.731,76.964,350.731z"/>
	<path style="fill:#F5DF5D;" d="M314.746,100.864c-1.919,0-3.839-0.732-5.304-2.197c-2.929-2.929-2.929-7.678,0-10.607
		l30.545-30.545c2.93-2.929,7.678-2.929,10.607,0s2.929,7.678,0,10.606L320.05,98.668
		C318.585,100.132,316.665,100.864,314.746,100.864z"/>
</g>
<path style="fill:#FFFFFF;" d="M404.491,350.731c-1.919,0-3.839-0.732-5.304-2.197c-2.929-2.929-2.929-7.678,0-10.607l30.545-30.545
	c2.93-2.929,7.678-2.929,10.607,0s2.929,7.678,0,10.607l-30.545,30.545C408.33,349.999,406.41,350.731,404.491,350.731z"/>
<path style="fill:#E8A8C2;" d="M419.764,254.795c-1.92,0-3.839-0.732-5.304-2.197c-2.929-2.929-2.929-7.678,0.001-10.606
	l30.546-30.545c2.928-2.93,7.677-2.929,10.607,0c2.929,2.929,2.929,7.678-0.001,10.606l-30.546,30.545
	C423.603,254.063,421.683,254.795,419.764,254.795z"/>
<g>
	<path style="fill:#FFFFFF;" d="M417.025,193.238c-1.919,0-3.839-0.732-5.304-2.197l-30.545-30.545
		c-2.929-2.929-2.929-7.678,0-10.607c2.93-2.929,7.678-2.929,10.607,0l30.545,30.545c2.929,2.929,2.929,7.678,0,10.606
		C420.864,192.506,418.944,193.238,417.025,193.238z"/>
	<path style="fill:#FFFFFF;" d="M232.093,85.592c-1.92,0-3.839-0.732-5.304-2.197L196.244,52.85c-2.929-2.929-2.929-7.678,0-10.606
		c2.931-2.929,7.679-2.929,10.607,0l30.545,30.545c2.929,2.929,2.929,7.678,0,10.606C235.932,84.859,234.012,85.592,232.093,85.592z
		"/>
</g>
<g>
</g>
<g>
</g>
<g>
</g>
<g>
</g>
<g>
</g>
<g>
</g>
<g>
</g>
<g>
</g>
<g>
</g>
<g>
</g>
<g>
</g>
<g>
</g>
<g>
</g>
<g>
</g>
<g>
</g>
</svg>
