<?xml version="1.0" encoding="iso-8859-1"?>
<!-- Generator: Adobe Illustrator 19.0.0, SVG Export Plug-In . SVG Version: 6.00 Build 0)  -->
<svg version="1.1" id="Layer_1" xmlns="http://www.w3.org/2000/svg" xmlns:xlink="http://www.w3.org/1999/xlink" x="0px" y="0px"
	 viewBox="0 0 512 512" style="enable-background:new 0 0 512 512;" xml:space="preserve">
<path style="fill:#E3637B;" d="M453.056,63.05c-1.829-33.75-30.16-61.131-65.141-62.95c-17.18-0.893-33.084,4.275-45.623,13.488
	c-7.892,5.798-18.36,7.124-27.595,3.631C296.511,10.339,276.714,6.558,256,6.558s-40.511,3.781-58.697,10.66
	c-9.235,3.493-19.704,2.167-27.595-3.631C157.169,4.375,141.265-0.794,124.085,0.1C89.104,1.919,60.773,29.3,58.944,63.05
	c-1.247,23.011,9.62,43.629,26.993,56.471c7.454,5.51,11.462,14.287,10.321,23.28c-0.791,6.235-1.199,12.584-1.199,19.025
	c0,27.882,7.622,50.167,20.962,67.549c9.382,12.226,10.117,28.85,2.125,42.027c-15.273,25.18-23.265,58.05-21.136,99.438
	c3.798,73.843,13.97,136.098,158.991,136.098s155.192-62.255,158.991-136.098c2.129-41.387-5.863-74.257-21.136-99.438
	c-7.992-13.177-7.258-29.801,2.125-42.027c13.34-17.382,20.962-39.667,20.962-67.549c0-6.441-0.408-12.79-1.199-19.025
	c-1.141-8.993,2.867-17.77,10.321-23.28C443.435,106.678,454.303,86.061,453.056,63.05z"/>
<path style="opacity:0.05;enable-background:new    ;" d="M122.871,244.352c1.874,9.077,0.31,18.747-4.726,27.05
	c-14.648,24.151-22.573,55.397-21.321,94.425c5.505,1.408,11.291,2.172,17.268,2.172c36.37,0,65.853-27.806,65.853-62.106
	C179.947,274.401,155.088,248.402,122.871,244.352z"/>
<path style="opacity:0.05;enable-background:new    ;" d="M126.514,400.639c-9.455,0-18.436,1.893-26.562,5.277
	c5.798,42.736,22.205,77.777,80.13,92.932c7.725-10.176,12.286-22.633,12.286-36.102
	C192.367,428.445,162.884,400.639,126.514,400.639z"/>
<path style="opacity:0.05;enable-background:new    ;" d="M389.129,244.352c-1.874,9.077-0.31,18.747,4.726,27.05
	c14.648,24.151,22.573,55.397,21.32,94.425c-5.505,1.408-11.291,2.172-17.268,2.172c-36.37,0-65.853-27.806-65.853-62.106
	C332.053,274.401,356.912,248.402,389.129,244.352z"/>
<path style="opacity:0.05;enable-background:new    ;" d="M385.486,400.639c9.455,0,18.435,1.893,26.562,5.277
	c-5.798,42.736-22.205,77.777-80.13,92.932c-7.724-10.176-12.286-22.633-12.286-36.102
	C319.633,428.445,349.117,400.639,385.486,400.639z"/>
<path style="opacity:0.05;enable-background:new    ;" d="M256,305.893c61.533,0,120.638-36.208,133.659-70.293
	c-7.659,6.894-53.6,33.702-133.659,33.702S130,242.494,122.341,235.6C135.362,269.685,194.467,305.893,256,305.893z"/>
<g>
	<ellipse style="fill:#E3637B;" cx="114.09" cy="290.07" rx="65.853" ry="62.11"/>
	<ellipse style="fill:#E3637B;" cx="126.51" cy="449.89" rx="65.853" ry="62.11"/>
	<ellipse style="fill:#E3637B;" cx="397.91" cy="290.07" rx="65.853" ry="62.11"/>
	<ellipse style="fill:#E3637B;" cx="385.49" cy="449.89" rx="65.853" ry="62.11"/>
</g>
<g>
	<ellipse style="opacity:0.2;fill:#FFFFFF;enable-background:new    ;" cx="114.09" cy="290.07" rx="65.853" ry="62.11"/>
	<ellipse style="opacity:0.2;fill:#FFFFFF;enable-background:new    ;" cx="126.51" cy="449.89" rx="65.853" ry="62.11"/>
	<ellipse style="opacity:0.2;fill:#FFFFFF;enable-background:new    ;" cx="397.91" cy="290.07" rx="65.853" ry="62.11"/>
	<ellipse style="opacity:0.2;fill:#FFFFFF;enable-background:new    ;" cx="385.49" cy="449.89" rx="65.853" ry="62.11"/>
</g>
<g>
	<path style="fill:#394049;" d="M173.121,142.512c-4.142,0-7.5-3.358-7.5-7.5v-14.571c0-4.142,3.358-7.5,7.5-7.5s7.5,3.358,7.5,7.5
		v14.571C180.621,139.154,177.263,142.512,173.121,142.512z"/>
	<path style="fill:#394049;" d="M338.879,142.512c-4.142,0-7.5-3.358-7.5-7.5v-14.571c0-4.142,3.358-7.5,7.5-7.5s7.5,3.358,7.5,7.5
		v14.571C346.379,139.154,343.022,142.512,338.879,142.512z"/>
</g>
<g>
	<path style="fill:#FFFFFF;" d="M184.584,169.107h-22.926c-4.142,0-7.5-3.358-7.5-7.5s3.358-7.5,7.5-7.5h22.926
		c4.142,0,7.5,3.358,7.5,7.5S188.726,169.107,184.584,169.107z"/>
	<path style="fill:#FFFFFF;" d="M350.342,169.107h-22.926c-4.142,0-7.5-3.358-7.5-7.5s3.358-7.5,7.5-7.5h22.926
		c4.142,0,7.5,3.358,7.5,7.5S354.484,169.107,350.342,169.107z"/>
</g>
<path style="fill:#394049;" d="M269.385,155.897c-5.089,0-9.758-1.829-13.385-4.865c-3.627,3.036-8.296,4.865-13.385,4.865
	c-11.516,0-20.884-9.369-20.884-20.884c0-4.142,3.358-7.5,7.5-7.5s7.5,3.358,7.5,7.5c0,3.245,2.64,5.884,5.884,5.884
	c3.245,0,5.885-2.64,5.885-5.884c0-4.142,3.358-7.5,7.5-7.5s7.5,3.358,7.5,7.5c0,3.245,2.64,5.884,5.885,5.884
	s5.884-2.64,5.884-5.884c0-4.142,3.358-7.5,7.5-7.5s7.5,3.358,7.5,7.5C290.269,146.528,280.9,155.897,269.385,155.897z"/>
<g>
</g>
<g>
</g>
<g>
</g>
<g>
</g>
<g>
</g>
<g>
</g>
<g>
</g>
<g>
</g>
<g>
</g>
<g>
</g>
<g>
</g>
<g>
</g>
<g>
</g>
<g>
</g>
<g>
</g>
</svg>
