<?xml version="1.0" encoding="iso-8859-1"?>
<!-- Generator: Adobe Illustrator 19.0.0, SVG Export Plug-In . SVG Version: 6.00 Build 0)  -->
<svg version="1.1" id="Layer_1" xmlns="http://www.w3.org/2000/svg" xmlns:xlink="http://www.w3.org/1999/xlink" x="0px" y="0px"
	 viewBox="0 0 512 512" style="enable-background:new 0 0 512 512;" xml:space="preserve">
<path style="fill:#E3637B;" d="M364.417,87.567V30.82H147.583v56.747c0,5.877-1.939,11.59-5.516,16.253l-36.14,47.11
	c-12.594,16.416-19.42,36.529-19.42,57.219v259.022c0,24.758,20.07,44.829,44.829,44.829h249.328
	c24.758,0,44.829-20.071,44.829-44.829V208.149c0-20.691-6.826-40.803-19.42-57.219l-36.14-47.11
	C366.356,99.157,364.417,93.444,364.417,87.567z"/>
<path style="opacity:0.1;enable-background:new    ;" d="M369.933,103.82c-3.577-4.663-5.516-10.376-5.516-16.253V68.17H147.583
	v19.397c0,5.877-1.939,11.59-5.516,16.253l-7.823,10.198c14.135-4.025,29.389-2.786,42.831,3.726l0,0
	c16.615,8.049,36.001,8.049,52.617,0l0,0c16.615-8.049,36.001-8.049,52.617,0l0,0c16.615,8.049,36.001,8.049,52.616,0l0,0
	c13.442-6.512,28.697-7.751,42.832-3.726L369.933,103.82z"/>
<g>
	<path style="opacity:0.15;fill:#FFFFFF;enable-background:new    ;" d="M406.073,150.93l-12.168-15.862L86.507,442.466v24.705
		c0,24.758,20.071,44.829,44.829,44.829h24.45l269.707-269.707v-34.144C425.493,187.458,418.667,167.346,406.073,150.93z"/>
	<path style="opacity:0.15;fill:#FFFFFF;enable-background:new    ;" d="M299.289,512h81.375c24.758,0,44.829-20.07,44.829-44.829
		v-81.375L299.289,512z"/>
</g>
<path style="fill:#F5B96E;" d="M147.583,55.464L147.583,55.464c0,10.052-4.148,19.658-11.465,26.551l-16.69,15.722
	c-3.735,3.519,0.412,9.537,5.03,7.3l0,0c16.615-8.049,36.001-8.049,52.617,0l0,0c16.615,8.049,36.001,8.049,52.617,0l0,0
	c16.615-8.049,36.001-8.049,52.616,0l0,0c16.615,8.049,36.001,8.049,52.616,0l0,0c16.615-8.049,36.001-8.049,52.617,0l0,0
	c4.619,2.237,8.766-3.781,5.03-7.3l-16.69-15.722c-7.317-6.893-11.465-16.499-11.465-26.551l0,0
	C364.416,55.464,147.583,55.464,147.583,55.464z"/>
<path style="opacity:0.1;enable-background:new    ;" d="M364.417,55.464H147.583c0,5.51-1.254,10.882-3.585,15.751h224.005
	C365.671,66.346,364.417,60.974,364.417,55.464z"/>
<path style="fill:#F5B96E;" d="M372.09,55.464H139.91c-10.512,0-19.033-8.521-19.033-19.033V19.033
	C120.877,8.521,129.398,0,139.91,0h232.18c10.512,0,19.033,8.521,19.033,19.033V36.43C391.123,46.943,382.601,55.464,372.09,55.464z
	"/>
<path style="fill:#FFFFFF;" d="M363.7,227.733H148.3c-13.44,0-24.335,10.895-24.335,24.335v192.613
	c0,13.44,10.895,24.335,24.335,24.335h215.4c13.44,0,24.335-10.895,24.335-24.335V252.068
	C388.035,238.628,377.14,227.733,363.7,227.733z"/>
<path style="fill:#20AB6C;" d="M211.379,301.029c11.115,11.115,29.846,11.698,40.312,11.006c4.586-0.303,8.225-3.942,8.528-8.528
	c0.692-10.466,0.109-29.197-11.006-40.312c-9.248-9.248-23.768-11.205-34.413-11.203c-8.053,0.001-14.622,6.571-14.624,14.624
	C200.174,277.262,202.131,291.782,211.379,301.029z"/>
<path style="opacity:0.1;enable-background:new    ;" d="M211.379,301.029c11.115,11.115,29.846,11.698,40.312,11.006
	c4.586-0.303,8.225-3.942,8.528-8.528c0.692-10.466,0.109-29.197-11.006-40.312c-9.248-9.248-23.768-11.205-34.413-11.203
	c-8.053,0.001-14.622,6.571-14.624,14.624C200.174,277.262,202.131,291.782,211.379,301.029z"/>
<path style="fill:#20AB6C;" d="M300.621,301.029c-11.115,11.115-29.846,11.698-40.312,11.006c-4.586-0.303-8.225-3.942-8.528-8.528
	c-0.692-10.466-0.109-29.197,11.006-40.312c9.248-9.248,23.768-11.205,34.413-11.203c8.053,0.001,14.622,6.571,14.624,14.624
	C311.826,277.262,309.869,291.782,300.621,301.029z"/>
<path style="fill:#E3637B;" d="M318.146,343.779c0-34.323-27.824-43.033-62.146-43.033s-62.146,8.71-62.146,43.033
	S221.677,441.32,256,441.32S318.146,378.101,318.146,343.779z"/>
<g>
	<path style="fill:#F5D96C;" d="M256,359.229c-4.142,0-7.5-3.357-7.5-7.5v-6.958c0-4.143,3.358-7.5,7.5-7.5s7.5,3.357,7.5,7.5v6.958
		C263.5,355.872,260.142,359.229,256,359.229z"/>
	<path style="fill:#F5D96C;" d="M222.346,347.964c-4.142,0-7.5-3.357-7.5-7.5v-6.958c0-4.143,3.358-7.5,7.5-7.5s7.5,3.357,7.5,7.5
		v6.958C229.846,344.606,226.488,347.964,222.346,347.964z"/>
	<path style="fill:#F5D96C;" d="M233.279,382.033c-4.142,0-7.5-3.357-7.5-7.5v-6.958c0-4.143,3.358-7.5,7.5-7.5s7.5,3.357,7.5,7.5
		v6.958C240.779,378.676,237.421,382.033,233.279,382.033z"/>
	<path style="fill:#F5D96C;" d="M289.654,347.964c-4.142,0-7.5-3.357-7.5-7.5v-6.958c0-4.143,3.358-7.5,7.5-7.5s7.5,3.357,7.5,7.5
		v6.958C297.154,344.606,293.796,347.964,289.654,347.964z"/>
	<path style="fill:#F5D96C;" d="M278.72,382.033c-4.142,0-7.5-3.357-7.5-7.5v-6.958c0-4.143,3.358-7.5,7.5-7.5s7.5,3.357,7.5,7.5
		v6.958C286.22,378.676,282.862,382.033,278.72,382.033z"/>
	<path style="fill:#F5D96C;" d="M256,413.178c-4.142,0-7.5-3.357-7.5-7.5v-6.958c0-4.143,3.358-7.5,7.5-7.5s7.5,3.357,7.5,7.5v6.958
		C263.5,409.82,260.142,413.178,256,413.178z"/>
</g>
<g>
	<path style="fill:#394049;" d="M179.192,171.083c-4.142,0-7.5-3.357-7.5-7.5V150.08c0-4.143,3.358-7.5,7.5-7.5s7.5,3.357,7.5,7.5
		v13.503C186.692,167.726,183.334,171.083,179.192,171.083z"/>
	<path style="fill:#394049;" d="M332.808,171.083c-4.142,0-7.5-3.357-7.5-7.5V150.08c0-4.143,3.358-7.5,7.5-7.5s7.5,3.357,7.5,7.5
		v13.503C340.308,167.726,336.95,171.083,332.808,171.083z"/>
</g>
<g>
	<path style="fill:#FFFFFF;" d="M189.816,195.73h-21.247c-4.142,0-7.5-3.357-7.5-7.5s3.358-7.5,7.5-7.5h21.247
		c4.142,0,7.5,3.357,7.5,7.5C197.316,192.372,193.958,195.73,189.816,195.73z"/>
	<path style="fill:#FFFFFF;" d="M343.431,195.73h-21.247c-4.142,0-7.5-3.357-7.5-7.5s3.358-7.5,7.5-7.5h21.247
		c4.142,0,7.5,3.357,7.5,7.5C350.931,192.372,347.573,195.73,343.431,195.73z"/>
</g>
<path style="fill:#394049;" d="M268.404,183.487c-4.686,0-8.999-1.628-12.404-4.348c-3.404,2.72-7.717,4.348-12.404,4.348
	c-10.975,0-19.904-8.929-19.904-19.904c0-4.143,3.358-7.5,7.5-7.5s7.5,3.357,7.5,7.5c0,2.704,2.2,4.904,4.904,4.904
	s4.904-2.2,4.904-4.904c0-4.143,3.358-7.5,7.5-7.5s7.5,3.357,7.5,7.5c0,2.704,2.2,4.904,4.904,4.904s4.904-2.2,4.904-4.904
	c0-4.143,3.358-7.5,7.5-7.5s7.5,3.357,7.5,7.5C288.308,174.559,279.379,183.487,268.404,183.487z"/>
<g>
</g>
<g>
</g>
<g>
</g>
<g>
</g>
<g>
</g>
<g>
</g>
<g>
</g>
<g>
</g>
<g>
</g>
<g>
</g>
<g>
</g>
<g>
</g>
<g>
</g>
<g>
</g>
<g>
</g>
</svg>
