<?xml version="1.0" encoding="iso-8859-1"?>
<!-- Generator: Adobe Illustrator 19.0.0, SVG Export Plug-In . SVG Version: 6.00 Build 0)  -->
<svg version="1.1" id="Layer_1" xmlns="http://www.w3.org/2000/svg" xmlns:xlink="http://www.w3.org/1999/xlink" x="0px" y="0px"
	 viewBox="0 0 512 512" style="enable-background:new 0 0 512 512;" xml:space="preserve">
<path style="fill:#F5B96E;" d="M217.657,462.443c0,27.369-22.187,49.557-49.557,49.557c-27.369,0-49.557-22.187-49.557-49.557
	V73.242c0-27.37,22.187-39.038,49.557-39.038s49.557,22.187,49.557,49.557L217.657,462.443L217.657,462.443z"/>
<path style="opacity:0.1;enable-background:new    ;" d="M217.657,462.443c0,27.369-22.187,49.557-49.557,49.557
	c-27.369,0-49.557-22.187-49.557-49.557V73.242c0-27.37,22.187-39.038,49.557-39.038s49.557,22.187,49.557,49.557L217.657,462.443
	L217.657,462.443z"/>
<path style="fill:#F5B96E;" d="M254.719,462.443c0,27.369,22.187,49.557,49.557,49.557c27.369,0,49.557-22.187,49.557-49.557V83.761
	c0-27.369-22.187-49.557-49.557-49.557s-49.557,22.187-49.557,49.557V462.443z"/>
<path style="opacity:0.1;enable-background:new    ;" d="M254.719,462.443c0,27.369,22.187,49.557,49.557,49.557
	c27.369,0,49.557-22.187,49.557-49.557V83.761c0-27.369-22.187-49.557-49.557-49.557s-49.557,22.187-49.557,49.557V462.443z"/>
<path style="fill:#F5B96E;" d="M285.745,462.443c0,27.369-22.187,49.557-49.557,49.557s-49.557-22.187-49.557-49.557V83.761
	c0-27.369,22.187-49.557,49.557-49.557s49.557,22.187,49.557,49.557V462.443z"/>
<g>
	<path style="fill:#394049;" d="M153.542,206.23c-4.143,0-7.5-3.357-7.5-7.5V184.2c0-4.143,3.357-7.5,7.5-7.5s7.5,3.357,7.5,7.5
		v14.529C161.042,202.872,157.685,206.23,153.542,206.23z"/>
	<path style="fill:#394049;" d="M318.834,206.23c-4.143,0-7.5-3.357-7.5-7.5V184.2c0-4.143,3.357-7.5,7.5-7.5s7.5,3.357,7.5,7.5
		v14.529C326.334,202.872,322.977,206.23,318.834,206.23z"/>
</g>
<g>
	<path style="fill:#FFFFFF;" d="M164.973,232.749h-22.861c-4.142,0-7.5-3.357-7.5-7.5s3.358-7.5,7.5-7.5h22.861
		c4.143,0,7.5,3.357,7.5,7.5C172.473,229.392,169.115,232.749,164.973,232.749z"/>
	<path style="fill:#FFFFFF;" d="M330.265,232.749h-22.862c-4.143,0-7.5-3.357-7.5-7.5s3.357-7.5,7.5-7.5h22.862
		c4.143,0,7.5,3.357,7.5,7.5S334.407,232.749,330.265,232.749z"/>
</g>
<path style="fill:#394049;" d="M249.535,219.576c-5.073,0-9.729-1.821-13.348-4.845c-3.618,3.023-8.273,4.845-13.347,4.845
	c-11.495,0-20.847-9.352-20.847-20.847c0-4.143,3.357-7.5,7.5-7.5s7.5,3.357,7.5,7.5c0,3.224,2.623,5.847,5.847,5.847
	s5.847-2.623,5.847-5.847c0-4.143,3.357-7.5,7.5-7.5s7.5,3.357,7.5,7.5c0,3.224,2.623,5.847,5.848,5.847
	c3.224,0,5.847-2.623,5.847-5.847c0-4.143,3.358-7.5,7.5-7.5c4.143,0,7.5,3.357,7.5,7.5
	C270.382,210.225,261.03,219.576,249.535,219.576z"/>
<path style="opacity:0.1;enable-background:new    ;" d="M349.767,64.093c-14.021-12.12-29.704-22.176-46.555-29.863
	c-12.767,0.27-24.341,5.363-32.981,13.537c-8.879-8.401-20.855-13.563-34.044-13.563s-25.165,5.162-34.044,13.563
	c-8.879-8.401-20.855-13.563-34.044-13.563c-27.369,0-49.557,11.669-49.557,39.038v36.811c9.041,7.348,20.567,11.759,33.126,11.759
	H257.76c28.624,0,54.911,15.8,68.341,41.078l0,0c6.052,11.39,16.459,18.349,27.732,20.543V83.761
	C353.833,76.771,352.378,70.123,349.767,64.093z"/>
<path style="fill:#8D6A59;" d="M405.31,11.954L405.31,11.954C393.877-1.804,373.539-3.89,359.551,7.26
	c-0.546,0.435-1.098,0.862-1.655,1.279c-17.054,12.783-39.811,15.25-59.43,6.921C274.838,5.43,249.061,0,222.446,0h-70.777
	c-29.032,0-52.566,23.535-52.566,52.567l0,0c0,29.032,23.535,52.567,52.566,52.567H257.76c28.624,0,54.911,15.8,68.341,41.078l0,0
	c13.347,25.121,47.867,28.771,66.172,6.996l0,0c10.179-12.109,12.298-29.067,5.41-43.308l0,0
	c-5.956-12.313-13.11-23.8-21.276-34.356c9.857-4.923,18.944-11.429,26.865-19.349l0,0C415.278,44.189,416.161,25.013,405.31,11.954
	z"/>
<g>
</g>
<g>
</g>
<g>
</g>
<g>
</g>
<g>
</g>
<g>
</g>
<g>
</g>
<g>
</g>
<g>
</g>
<g>
</g>
<g>
</g>
<g>
</g>
<g>
</g>
<g>
</g>
<g>
</g>
</svg>
