<?xml version="1.0" encoding="iso-8859-1"?>
<!-- Generator: Adobe Illustrator 19.0.0, SVG Export Plug-In . SVG Version: 6.00 Build 0)  -->
<svg version="1.1" id="Layer_1" xmlns="http://www.w3.org/2000/svg" xmlns:xlink="http://www.w3.org/1999/xlink" x="0px" y="0px"
	 viewBox="0 0 512 512" style="enable-background:new 0 0 512 512;" xml:space="preserve">
<path style="fill:#20AB6C;" d="M15.348,127.762c-8.826,0-15.868,7.435-15.318,16.244C8.41,278.086,119.809,384.238,256,384.238
	s247.59-106.152,255.97-240.231c0.551-8.809-6.492-16.244-15.318-16.244L15.348,127.762L15.348,127.762z"/>
<path style="fill:#F9EFD1;" d="M473.604,127.762c0,120.18-97.425,217.604-217.604,217.604S38.396,247.942,38.396,127.762H473.604z"
	/>
<path style="fill:#E3637B;" d="M450.768,127.762c0,107.568-87.201,194.768-194.768,194.768S61.232,235.33,61.232,127.762H450.768z"
	/>
<g>
	<circle style="fill:#FFFFFF;" cx="380.55" cy="187.76" r="7.373"/>
	<circle style="fill:#FFFFFF;" cx="409.83" cy="173.91" r="7.373"/>
	<circle style="fill:#FFFFFF;" cx="391.22" cy="211.89" r="7.373"/>
	<circle style="fill:#FFFFFF;" cx="365.81" cy="252.34" r="7.373"/>
	<circle style="fill:#FFFFFF;" cx="107.05" cy="177.08" r="7.373"/>
	<circle style="fill:#FFFFFF;" cx="127.28" cy="214.11" r="7.373"/>
	<circle style="fill:#FFFFFF;" cx="32.427" cy="207.88" r="7.373"/>
	<circle style="fill:#FFFFFF;" cx="153.36" cy="159.79" r="7.373"/>
	<circle style="fill:#FFFFFF;" cx="87.73" cy="152.41" r="7.373"/>
	<circle style="fill:#FFFFFF;" cx="193.11" cy="277.99" r="7.373"/>
	<circle style="fill:#FFFFFF;" cx="119.54" cy="320.03" r="7.373"/>
	<circle style="fill:#FFFFFF;" cx="452.55" cy="258.19" r="7.373"/>
</g>
<g>
	<path style="fill:#394049;" d="M192.989,200.606c-4.142,0-7.5-3.357-7.5-7.5v-11.077c0-4.143,3.358-7.5,7.5-7.5s7.5,3.357,7.5,7.5
		v11.077C200.489,197.249,197.131,200.606,192.989,200.606z"/>
	<path style="fill:#394049;" d="M319.01,200.606c-4.142,0-7.5-3.357-7.5-7.5v-11.077c0-4.143,3.358-7.5,7.5-7.5s7.5,3.357,7.5,7.5
		v11.077C326.51,197.249,323.152,200.606,319.01,200.606z"/>
</g>
<g>
	<path style="fill:#FFFFFF;" d="M201.705,220.826h-17.43c-4.142,0-7.5-3.357-7.5-7.5s3.358-7.5,7.5-7.5h17.43
		c4.142,0,7.5,3.357,7.5,7.5C209.205,217.469,205.847,220.826,201.705,220.826z"/>
	<path style="fill:#FFFFFF;" d="M327.726,220.826h-17.43c-4.142,0-7.5-3.357-7.5-7.5s3.358-7.5,7.5-7.5h17.43
		c4.142,0,7.5,3.357,7.5,7.5C335.226,217.469,331.868,220.826,327.726,220.826z"/>
</g>
<path style="fill:#394049;" d="M266.176,210.782c-3.785,0-7.297-1.196-10.176-3.23c-2.879,2.034-6.391,3.23-10.176,3.23
	c-9.747,0-17.676-7.93-17.676-17.676c0-4.143,3.358-7.5,7.5-7.5s7.5,3.357,7.5,7.5c0,1.476,1.2,2.676,2.676,2.676
	s2.676-1.2,2.676-2.676c0-4.143,3.358-7.5,7.5-7.5c4.142,0,7.5,3.357,7.5,7.5c0,1.476,1.2,2.676,2.676,2.676
	c1.476,0,2.676-1.2,2.676-2.676c0-4.143,3.358-7.5,7.5-7.5s7.5,3.357,7.5,7.5C283.852,202.852,275.922,210.782,266.176,210.782z"/>
<g>
</g>
<g>
</g>
<g>
</g>
<g>
</g>
<g>
</g>
<g>
</g>
<g>
</g>
<g>
</g>
<g>
</g>
<g>
</g>
<g>
</g>
<g>
</g>
<g>
</g>
<g>
</g>
<g>
</g>
</svg>
