<?xml version="1.0" encoding="iso-8859-1"?>
<!-- Generator: Adobe Illustrator 19.0.0, SVG Export Plug-In . SVG Version: 6.00 Build 0)  -->
<svg version="1.1" id="Layer_1" xmlns="http://www.w3.org/2000/svg" xmlns:xlink="http://www.w3.org/1999/xlink" x="0px" y="0px"
	 viewBox="0 0 511.999 511.999" style="enable-background:new 0 0 511.999 511.999;" xml:space="preserve">
<path style="fill:#20AB6C;" d="M330.491,55.05L330.491,55.05c-40.029,45.215-99.605,68.049-159.6,61.171l0,0
	C93.49,107.349,34.269,183.739,62.152,256.486l0,0c13.85,36.134,46.651,61.564,85.097,65.971l0,0
	c127.309,14.594,253.728-33.86,338.669-129.805l0,0c25.652-28.975,33.054-69.813,19.204-105.948l0,0
	C477.24,13.957,382.133-3.282,330.491,55.05z"/>
<path style="opacity:0.05;enable-background:new    ;" d="M322.658,243.435L322.658,243.435c-53.56,27.894-117.361,27.894-170.921,0
	l0,0c-31.526-16.419-65.868-14.903-93.896-1.009c1.091,4.686,2.518,9.381,4.312,14.061l0,0
	c13.85,36.135,46.651,61.564,85.097,65.971l0,0c99.997,11.463,199.441-15.979,278.671-74.774
	C396.428,229.116,357.795,225.135,322.658,243.435z"/>
<g>
	<path style="fill:#394049;" d="M198.167,214.823c-3.017,0-5.861-1.832-7.005-4.817c-1.968-5.133-1.818-10.726,0.42-15.747
		c2.239-5.021,6.299-8.87,11.433-10.837c10.597-4.062,22.521,1.255,26.583,11.852c1.482,3.868-0.451,8.205-4.318,9.688
		c-3.869,1.483-8.206-0.451-9.688-4.318c-1.102-2.875-4.341-4.317-7.209-3.215c-1.393,0.534-2.493,1.578-3.101,2.939
		c-0.607,1.362-0.647,2.878-0.114,4.27c1.482,3.868-0.451,8.205-4.318,9.688C199.967,214.663,199.059,214.823,198.167,214.823z"/>
	<path style="fill:#394049;" d="M346.665,157.907c-3.017,0-5.86-1.833-7.005-4.817c-1.968-5.133-1.819-10.725,0.419-15.746
		c2.239-5.021,6.299-8.87,11.433-10.838c5.132-1.967,10.724-1.819,15.746,0.42c5.021,2.239,8.87,6.299,10.837,11.432
		c1.482,3.868-0.451,8.205-4.319,9.687c-3.869,1.485-8.205-0.452-9.686-4.32c-0.534-1.392-1.577-2.492-2.939-3.099
		s-2.879-0.648-4.27-0.114c-1.393,0.534-2.493,1.577-3.1,2.938c-0.607,1.362-0.647,2.878-0.114,4.27
		c1.482,3.868-0.45,8.205-4.318,9.688C348.465,157.746,347.557,157.907,346.665,157.907z"/>
</g>
<g>
	<path style="fill:#FFFFFF;" d="M209.404,238.322c-3.017,0-5.861-1.833-7.005-4.818c-1.482-3.868,0.451-8.205,4.318-9.688
		l20.539-7.872c3.87-1.485,8.206,0.452,9.688,4.319c1.482,3.868-0.451,8.205-4.318,9.688l-20.539,7.872
		C211.204,238.162,210.296,238.322,209.404,238.322z"/>
	<path style="fill:#FFFFFF;" d="M357.902,181.406c-3.017,0-5.861-1.833-7.005-4.818c-1.482-3.868,0.451-8.205,4.318-9.688
		l20.539-7.872c3.875-1.483,8.206,0.453,9.688,4.319c1.482,3.868-0.451,8.205-4.318,9.688l-20.539,7.872
		C359.701,181.246,358.794,181.406,357.902,181.406z"/>
</g>
<path style="fill:#394049;" d="M272.821,199.539c-8.185,0.001-15.917-4.975-19.017-13.062c-1.482-3.868,0.451-8.205,4.318-9.688
	c3.869-1.482,8.206,0.453,9.688,4.319c1.055,2.75,4.15,4.128,6.9,3.076c2.749-1.054,4.129-4.149,3.075-6.899
	c-0.339-0.884-0.499-1.792-0.499-2.686c0.001-3.016,1.834-5.858,4.818-7.002c3.867-1.482,8.205,0.453,9.686,4.319
	c0.511,1.332,1.51,2.386,2.813,2.967c1.305,0.581,2.755,0.62,4.087,0.109c1.332-0.51,2.386-1.509,2.967-2.812
	c0.581-1.303,0.62-2.754,0.109-4.087c-1.482-3.868,0.451-8.205,4.318-9.688c3.875-1.484,8.206,0.453,9.688,4.319
	c1.944,5.073,1.797,10.6-0.415,15.563s-6.225,8.767-11.298,10.711c-4.425,1.695-9.196,1.8-13.635,0.332
	c-2.249,3.92-5.808,7.12-10.347,8.86C277.692,199.105,275.237,199.539,272.821,199.539z"/>
<path style="fill:#E3637B;" d="M322.658,263.464L322.658,263.464c-53.56,27.894-117.361,27.894-170.921,0l0,0
	C82.638,227.478,0,277.613,0,355.521l0,0c0,38.698,21.528,74.182,55.85,92.057l0,0c113.653,59.19,249.04,59.19,362.693,0l0,0
	c34.322-17.875,55.85-53.359,55.85-92.057l0,0C474.394,277.613,391.756,227.478,322.658,263.464z"/>
<g>
	<path style="fill:#394049;" d="M170.763,365.791c-4.143,0-7.5-3.358-7.5-7.5c0-3.078-2.504-5.582-5.581-5.582
		s-5.581,2.504-5.581,5.582c0,4.142-3.357,7.5-7.5,7.5s-7.5-3.358-7.5-7.5c0-11.349,9.232-20.582,20.581-20.582
		s20.581,9.233,20.581,20.582C178.263,362.433,174.905,365.791,170.763,365.791z"/>
	<path style="fill:#394049;" d="M329.794,365.791c-4.143,0-7.5-3.358-7.5-7.5c0-3.078-2.504-5.582-5.581-5.582
		s-5.581,2.504-5.581,5.582c0,4.142-3.357,7.5-7.5,7.5s-7.5-3.358-7.5-7.5c0-11.349,9.232-20.582,20.581-20.582
		s20.581,9.233,20.581,20.582C337.294,362.433,333.936,365.791,329.794,365.791z"/>
</g>
<g>
	<path style="fill:#FFFFFF;" d="M168.679,391.755h-21.995c-4.143,0-7.5-3.358-7.5-7.5s3.357-7.5,7.5-7.5h21.995
		c4.143,0,7.5,3.358,7.5,7.5S172.821,391.755,168.679,391.755z"/>
	<path style="fill:#FFFFFF;" d="M327.711,391.755h-21.996c-4.143,0-7.5-3.358-7.5-7.5s3.357-7.5,7.5-7.5h21.996
		c4.143,0,7.5,3.358,7.5,7.5S331.853,391.755,327.711,391.755z"/>
</g>
<path style="fill:#394049;" d="M250.038,379.081c-4.865,0-9.337-1.717-12.841-4.577c-3.505,2.86-7.977,4.577-12.842,4.577
	c-11.216,0-20.341-9.125-20.341-20.341c0-4.142,3.357-7.5,7.5-7.5s7.5,3.358,7.5,7.5c0,2.945,2.396,5.341,5.341,5.341
	s5.342-2.396,5.342-5.341c0-4.142,3.357-7.5,7.5-7.5s7.5,3.358,7.5,7.5c0,2.945,2.396,5.341,5.341,5.341s5.342-2.396,5.342-5.341
	c0-4.142,3.357-7.5,7.5-7.5s7.5,3.358,7.5,7.5C270.38,369.956,261.255,379.081,250.038,379.081z"/>
<g>
</g>
<g>
</g>
<g>
</g>
<g>
</g>
<g>
</g>
<g>
</g>
<g>
</g>
<g>
</g>
<g>
</g>
<g>
</g>
<g>
</g>
<g>
</g>
<g>
</g>
<g>
</g>
<g>
</g>
</svg>
