<?xml version="1.0" encoding="iso-8859-1"?>
<!-- Generator: Adobe Illustrator 19.0.0, SVG Export Plug-In . SVG Version: 6.00 Build 0)  -->
<svg version="1.1" id="Layer_1" xmlns="http://www.w3.org/2000/svg" xmlns:xlink="http://www.w3.org/1999/xlink" x="0px" y="0px"
	 viewBox="0 0 512 512" style="enable-background:new 0 0 512 512;" xml:space="preserve">
<path style="fill:#D0D1D2;" d="M247.786,298.182l-33.966-33.966L3.473,474.562c-4.63,4.63-4.63,12.137,0,16.767l17.199,17.199
	c4.63,4.63,12.137,4.63,16.767,0L247.786,298.182z"/>
<path style="opacity:0.1;enable-background:new    ;" d="M213.82,264.216l-35.271,35.271c4.789,6.317,10.053,12.388,15.815,18.151
	c5.763,5.763,11.834,11.026,18.151,15.815l35.271-35.271L213.82,264.216z"/>
<circle style="fill:#9D7BC6;" cx="337.33" cy="174.671" r="174.67"/>
<path style="opacity:0.1;enable-background:new    ;" d="M210.034,55.078c-10.479,11.141-19.215,23.323-26.217,36.198
	l236.909,236.909c12.876-7.001,25.057-15.738,36.198-26.217L210.034,55.078z"/>
<path style="fill:#9D7BC6;" d="M485.146,280.443L231.559,26.855c-4.607-4.607-12.077-4.607-16.684,0l-25.36,25.36
	c-4.607,4.607-4.607,12.077,0,16.684l253.588,253.588c4.607,4.607,12.077,4.607,16.684,0l25.36-25.36
	C489.753,292.52,489.753,285.05,485.146,280.443z"/>
<path style="opacity:0.15;fill:#FFFFFF;enable-background:new    ;" d="M485.146,280.443L231.559,26.855
	c-4.607-4.607-12.077-4.607-16.684,0l-25.36,25.36c-4.607,4.607-4.607,12.077,0,16.684l253.588,253.588
	c4.607,4.607,12.077,4.607,16.684,0l25.36-25.36C489.753,292.52,489.753,285.05,485.146,280.443z"/>
<g>
	<path style="fill:#394049;" d="M353.438,60.901c-1.919,0-3.839-0.732-5.304-2.196c-2.929-2.93-2.929-7.678,0-10.607l9.244-9.244
		c2.93-2.928,7.678-2.928,10.607,0c2.929,2.93,2.929,7.678,0,10.607l-9.244,9.244C357.276,60.169,355.356,60.901,353.438,60.901z"/>
	<path style="fill:#394049;" d="M458.6,166.064c-1.919,0-3.839-0.732-5.304-2.196c-2.929-2.93-2.929-7.678,0-10.607l9.244-9.244
		c2.93-2.928,7.678-2.928,10.608,0c2.929,2.93,2.929,7.678,0,10.607l-9.244,9.244C462.439,165.331,460.52,166.064,458.6,166.064z"/>
</g>
<g>
	<path style="fill:#FFFFFF;" d="M343.839,85.046c-1.919,0-3.839-0.732-5.304-2.196L323.99,68.305c-2.929-2.93-2.929-7.678,0-10.607
		c2.93-2.928,7.678-2.928,10.607,0l14.545,14.545c2.929,2.93,2.929,7.678,0,10.607C347.677,84.314,345.757,85.046,343.839,85.046z"
		/>
	<path style="fill:#FFFFFF;" d="M449,190.208c-1.919,0-3.839-0.732-5.304-2.196l-14.545-14.545c-2.929-2.93-2.929-7.678,0-10.607
		c2.93-2.928,7.678-2.928,10.607,0l14.545,14.545c2.929,2.93,2.929,7.678,0,10.607C452.839,189.476,450.919,190.208,449,190.208z"/>
</g>
<path style="fill:#394049;" d="M414.51,133.974c-4.996,0-9.991-1.901-13.795-5.704c-3.199-3.2-5.053-7.245-5.56-11.423
	c-4.178-0.508-8.222-2.361-11.422-5.561c-7.606-7.606-7.606-19.982-0.001-27.59c2.927-2.93,7.676-2.93,10.607-0.001
	c2.93,2.929,2.93,7.677,0.001,10.606c-1.758,1.759-1.759,4.619,0,6.377c1.757,1.758,4.617,1.758,6.376,0
	c2.93-2.928,7.678-2.928,10.608,0c1.464,1.465,2.196,3.385,2.196,5.304s-0.732,3.839-2.196,5.304c-1.759,1.758-1.758,4.618,0,6.377
	c1.759,1.759,4.618,1.756,6.377-0.001c2.929-2.929,7.678-2.928,10.607,0.001c2.929,2.93,2.929,7.678-0.001,10.606
	C424.503,132.072,419.505,133.974,414.51,133.974z"/>
<g>
</g>
<g>
</g>
<g>
</g>
<g>
</g>
<g>
</g>
<g>
</g>
<g>
</g>
<g>
</g>
<g>
</g>
<g>
</g>
<g>
</g>
<g>
</g>
<g>
</g>
<g>
</g>
<g>
</g>
</svg>
