<?xml version="1.0" encoding="iso-8859-1"?>
<!-- Generator: Adobe Illustrator 19.0.0, SVG Export Plug-In . SVG Version: 6.00 Build 0)  -->
<svg version="1.1" id="Layer_1" xmlns="http://www.w3.org/2000/svg" xmlns:xlink="http://www.w3.org/1999/xlink" x="0px" y="0px"
	 viewBox="0 0 511.999 511.999" style="enable-background:new 0 0 511.999 511.999;" xml:space="preserve">
<path style="fill:#F9EFD1;" d="M441.592,40.708H70.409c-30.498,0-55.222,24.724-55.222,55.222v332.09
	c0,30.498,24.724,55.222,55.222,55.222h371.183c30.498,0,55.222-24.724,55.222-55.222V95.929
	C496.813,65.431,472.09,40.708,441.592,40.708z"/>
<path style="opacity:0.1;enable-background:new    ;" d="M461.909,44.583c-0.736-0.031-1.473-0.056-2.216-0.056H52.307
	c-0.743,0-1.481,0.025-2.216,0.056c-20.44,8.096-34.904,28.025-34.904,51.347v288.083c9.474,9.621,22.583,15.562,37.012,15.286
	c27.816-0.532,50.201-23.247,50.201-51.19v-39.354c0-28.709,23.495-52.751,52.199-52.202c27.816,0.532,50.201,23.247,50.201,51.19
	v28.688c0,28.709,23.495,52.751,52.198,52.202c27.816-0.532,50.202-23.247,50.202-51.19v-54.288
	c0-28.709,23.495-52.751,52.198-52.202c27.816,0.532,50.202,23.247,50.202,51.19v86.733c0,28.709,23.495,52.751,52.198,52.202
	c13.65-0.261,25.984-5.873,35.015-14.814V95.93C496.813,72.608,482.35,52.679,461.909,44.583z"/>
<path style="fill:#8D6A59;" d="M0,81.064v250.262c0,28.709,23.495,52.751,52.198,52.202c27.816-0.532,50.201-23.247,50.201-51.19
	v-39.354c0-28.709,23.495-52.751,52.199-52.202c27.816,0.532,50.201,23.247,50.201,51.19v28.688
	c0,28.709,23.495,52.751,52.198,52.202c27.816-0.532,50.202-23.247,50.202-51.19v-54.288c0-28.709,23.495-52.751,52.198-52.202
	c27.816,0.532,50.202,23.247,50.202,51.19v86.733c0,28.709,23.495,52.751,52.198,52.202c27.816-0.532,50.202-23.247,50.202-51.19
	V81.064c0-28.889-23.419-52.307-52.307-52.307H52.307C23.419,28.757,0,52.176,0,81.064z"/>
<g>
	<path style="fill:#394049;" d="M163.002,126.276c-4.142,0-7.5-3.358-7.5-7.5c0-5.962-4.85-10.812-10.812-10.812
		c-5.961,0-10.812,4.85-10.812,10.812c0,4.142-3.358,7.5-7.5,7.5s-7.5-3.358-7.5-7.5c0-14.232,11.579-25.812,25.812-25.812
		s25.812,11.579,25.812,25.812C170.502,122.918,167.144,126.276,163.002,126.276z"/>
	<path style="fill:#394049;" d="M385.621,126.276c-4.143,0-7.5-3.358-7.5-7.5c0-5.962-4.85-10.812-10.811-10.812
		c-5.962,0-10.812,4.85-10.812,10.812c0,4.142-3.357,7.5-7.5,7.5c-4.142,0-7.5-3.358-7.5-7.5c0-14.232,11.579-25.812,25.812-25.812
		c14.232,0,25.811,11.579,25.811,25.812C393.121,122.918,389.764,126.276,385.621,126.276z"/>
</g>
<g>
	<path style="fill:#E8A8C2;" d="M160.085,162.622h-30.79c-4.142,0-7.5-3.358-7.5-7.5s3.358-7.5,7.5-7.5h30.79
		c4.142,0,7.5,3.358,7.5,7.5C167.585,159.264,164.228,162.622,160.085,162.622z"/>
	<path style="fill:#E8A8C2;" d="M382.705,162.622h-30.791c-4.143,0-7.5-3.358-7.5-7.5s3.357-7.5,7.5-7.5h30.791
		c4.143,0,7.5,3.358,7.5,7.5C390.205,159.264,386.848,162.622,382.705,162.622z"/>
</g>
<path style="fill:#394049;" d="M273.976,144.88c-7.008,0-13.365-2.845-17.976-7.44c-4.611,4.595-10.968,7.44-17.976,7.44
	c-14.047,0-25.476-11.429-25.476-25.476c0-4.142,3.358-7.5,7.5-7.5s7.5,3.358,7.5,7.5c0,5.776,4.7,10.476,10.476,10.476
	s10.476-4.7,10.476-10.476c0-4.142,3.358-7.5,7.5-7.5c4.143,0,7.5,3.358,7.5,7.5c0,5.776,4.699,10.476,10.476,10.476
	c5.776,0,10.476-4.7,10.476-10.476c0-4.142,3.358-7.5,7.5-7.5c4.143,0,7.5,3.358,7.5,7.5
	C299.452,133.452,288.023,144.88,273.976,144.88z"/>
<g>
</g>
<g>
</g>
<g>
</g>
<g>
</g>
<g>
</g>
<g>
</g>
<g>
</g>
<g>
</g>
<g>
</g>
<g>
</g>
<g>
</g>
<g>
</g>
<g>
</g>
<g>
</g>
<g>
</g>
</svg>
