<?xml version="1.0" encoding="iso-8859-1"?>
<!-- Generator: Adobe Illustrator 19.0.0, SVG Export Plug-In . SVG Version: 6.00 Build 0)  -->
<svg version="1.1" id="Layer_1" xmlns="http://www.w3.org/2000/svg" xmlns:xlink="http://www.w3.org/1999/xlink" x="0px" y="0px"
	 viewBox="0 0 512 512" style="enable-background:new 0 0 512 512;" xml:space="preserve">
<path style="fill:#F9EFD1;" d="M409.232,184.328l-225.759,7.367c-15.385,0.502-29.71,7.962-38.942,20.279l-60.192,80.308
	c-11.135,14.856-0.127,35.994,18.429,35.389l225.759-7.367c15.385-0.502,29.71-7.962,38.942-20.279l60.192-80.308
	C438.796,204.861,427.788,183.723,409.232,184.328z"/>
<g>
	<path style="fill:#394049;" d="M168.259,261.148c-4.03,0-7.361-3.201-7.491-7.259l-0.456-14.208
		c-0.133-4.14,3.115-7.604,7.256-7.737c0.081-0.002,0.163-0.004,0.245-0.004c4.03,0,7.361,3.201,7.491,7.259l0.456,14.208
		c0.133,4.14-3.115,7.604-7.256,7.737C168.423,261.146,168.341,261.148,168.259,261.148z"/>
	<path style="fill:#394049;" d="M329.896,255.952c-4.03,0-7.36-3.201-7.491-7.259l-0.457-14.208
		c-0.133-4.14,3.115-7.604,7.255-7.737c4.129-0.113,7.603,3.115,7.737,7.255l0.457,14.208c0.133,4.14-3.115,7.604-7.255,7.737
		C330.06,255.95,329.978,255.952,329.896,255.952z"/>
</g>
<g>
	<path style="fill:#E8A8C2;" d="M157.915,287.441c-4.03,0-7.36-3.201-7.491-7.259c-0.133-4.14,3.115-7.604,7.255-7.737l22.355-0.719
		c4.129-0.126,7.604,3.114,7.737,7.255c0.133,4.14-3.115,7.604-7.255,7.737l-22.355,0.719
		C158.079,287.439,157.997,287.441,157.915,287.441z"/>
	<path style="fill:#E8A8C2;" d="M319.552,282.245c-4.03,0-7.36-3.201-7.491-7.259c-0.133-4.14,3.115-7.604,7.255-7.737l22.357-0.719
		c4.095-0.119,7.604,3.114,7.737,7.255c0.133,4.14-3.115,7.604-7.255,7.737l-22.356,0.719
		C319.716,282.243,319.634,282.245,319.552,282.245z"/>
</g>
<path style="fill:#394049;" d="M236.021,272.028c-11.033,0.001-20.181-8.79-20.539-19.897c-0.134-4.14,3.114-7.604,7.254-7.738
	c4.165-0.11,7.604,3.114,7.738,7.254c0.098,3.063,2.618,5.473,5.734,5.377c1.484-0.048,2.861-0.67,3.877-1.753
	c1.016-1.083,1.549-2.497,1.501-3.981c-0.003-0.081-0.004-0.162-0.004-0.242c-0.002-4.032,3.2-7.365,7.26-7.495
	c0.081-0.002,0.163-0.004,0.245-0.004c4.03,0,7.361,3.201,7.491,7.259c0.048,1.484,0.67,2.86,1.753,3.876
	c1.084,1.016,2.511,1.548,3.982,1.501c3.063-0.099,5.476-2.671,5.377-5.734c-0.133-4.14,3.115-7.604,7.256-7.737
	c0.081-0.002,0.163-0.004,0.245-0.004c4.03,0,7.361,3.201,7.491,7.259c0.364,11.33-8.558,20.843-19.888,21.208
	c-4.818,0.156-9.436-1.346-13.202-4.255c-3.571,3.146-8.083,4.939-12.902,5.094C236.468,272.024,236.243,272.028,236.021,272.028z"
	/>
<path style="fill:#F9EFD1;" d="M243.117,468.738l27.35-37.146c5.223-7.094-0.035-17.087-8.84-16.8L55.89,421.506
	c-18.256,0.596-25.35,24.011-10.494,34.638l50.343,36.014C143.003,525.969,208.662,515.535,243.117,468.738z"/>
<path style="fill:#E8A8C2;" d="M57.086,445.279l198.398-6.474c9.115-0.297,17.573-4.822,22.879-12.239l57.963-81.022
	c9.379-13.11-0.343-31.284-16.454-30.759l-238.831,7.794c-9.116,0.298-17.573,4.822-22.879,12.239l-34.425,48.12
	C4.727,409.509,24.432,446.344,57.086,445.279z"/>
<path style="fill:#F9EFD1;" d="M268.883,43.262l-27.35,37.146c-5.223,7.094,0.035,17.087,8.84,16.8l205.736-6.714
	c18.256-0.596,25.35-24.011,10.494-34.638L416.26,19.842C368.997-13.969,303.338-3.535,268.883,43.262z"/>
<path style="fill:#E8A8C2;" d="M454.914,66.721l-198.398,6.474c-9.115,0.298-17.573,4.822-22.879,12.239l-57.963,81.022
	c-9.379,13.11,0.343,31.285,16.454,30.759l238.831-7.794c9.116-0.298,17.573-4.822,22.879-12.239l34.425-48.12
	C507.273,102.491,487.568,65.656,454.914,66.721z"/>
<g>
</g>
<g>
</g>
<g>
</g>
<g>
</g>
<g>
</g>
<g>
</g>
<g>
</g>
<g>
</g>
<g>
</g>
<g>
</g>
<g>
</g>
<g>
</g>
<g>
</g>
<g>
</g>
<g>
</g>
</svg>
