<?xml version="1.0" encoding="iso-8859-1"?>
<!-- Generator: Adobe Illustrator 19.0.0, SVG Export Plug-In . SVG Version: 6.00 Build 0)  -->
<svg version="1.1" id="Layer_1" xmlns="http://www.w3.org/2000/svg" xmlns:xlink="http://www.w3.org/1999/xlink" x="0px" y="0px"
	 viewBox="0 0 512 512" style="enable-background:new 0 0 512 512;" xml:space="preserve">
<path style="fill:#8D6A59;" d="M312.952,81.555V57.406H98.107v24.149c0,12.549-4.916,24.598-13.695,33.565l-28.488,29.097
	c-11.751,12.003-18.332,28.131-18.332,44.928V429.45c0,36.543,29.624,66.168,66.168,66.168H307.3
	c36.543,0,66.168-29.624,66.168-66.168V189.145c0-16.797-6.581-32.926-18.332-44.928l-28.488-29.097
	C317.869,106.153,312.952,94.104,312.952,81.555z"/>
<path style="opacity:0.15;fill:#FFFFFF;enable-background:new    ;" d="M355.136,144.217l-11.277-11.518L38.204,438.353
	c4.351,32.331,32.032,57.265,65.554,57.265h22.146l247.563-247.563v-58.91C373.468,172.348,366.887,156.22,355.136,144.217z"/>
<rect x="98.11" y="57.41" style="opacity:0.1;enable-background:new    ;" width="214.85" height="19.293"/>
<path style="fill:#FFFFFF;" d="M292.055,417.256H119.004c-12.578,0-22.775-10.197-22.775-22.775v-168.19
	c0-12.578,10.197-22.775,22.775-22.775h173.051c12.578,0,22.775,10.197,22.775,22.775v168.19
	C314.83,407.059,304.633,417.256,292.055,417.256z"/>
<path style="fill:#F5B96E;" d="M270.85,375.707L270.85,375.707c-20.69,20.69-55.426,15.856-69.68-9.697l0,0
	c-12.001-21.513-29.751-39.263-51.264-51.264l0,0c-25.553-14.255-30.387-48.99-9.697-69.68l0,0
	c20.69-20.69,55.426-15.856,69.68,9.697l0,0c12.001,21.513,29.751,39.263,51.264,51.264l0,0
	C286.707,320.281,291.541,355.017,270.85,375.707z"/>
<g style="opacity:0.1;">
	<path d="M187.858,319.085c-1.92,0-3.839-0.732-5.304-2.196l-34.942-34.943c-2.929-2.93-2.929-7.678,0-10.607
		c2.93-2.929,7.678-2.927,10.607,0l34.942,34.943c2.929,2.93,2.929,7.678,0,10.607C191.697,318.353,189.777,319.085,187.858,319.085
		z"/>
	<path d="M226.973,320.564c-1.92,0-3.839-0.732-5.304-2.196l-47.14-47.141c-2.929-2.93-2.929-7.678,0-10.607
		c2.93-2.929,7.678-2.927,10.607,0l47.14,47.141c2.929,2.93,2.929,7.678,0,10.607C230.812,319.831,228.892,320.564,226.973,320.564z
		"/>
	<path d="M164.916,307.084c-1.919,0-3.839-0.732-5.304-2.196c-2.929-2.93-2.929-7.678,0-10.607l29.833-29.833
		c2.93-2.928,7.678-2.928,10.607,0c2.929,2.93,2.929,7.678,0,10.607l-29.833,29.833
		C168.755,306.352,166.835,307.084,164.916,307.084z"/>
</g>
<path style="fill:#D0D1D2;" d="M461.207,152.323c-29.971-29.971-103.619-4.915-143.722,35.188
	c-32.834,32.834-33.836,66.413-16.673,93.957l-187.801,169.81c-14.792,13.375-15.371,36.41-1.27,50.511
	c14.101,14.101,37.136,13.522,50.511-1.27l169.81-187.801c27.544,17.163,61.123,16.161,93.957-16.673
	C466.123,255.942,491.178,182.294,461.207,152.323z"/>
<path style="opacity:0.1;enable-background:new    ;" d="M411.896,269.883c25.218-25.218,40.974-71.53,22.127-90.376
	s-65.159-3.091-90.376,22.127c-25.218,25.218-20.58,51.136-1.733,69.983C360.76,290.463,386.678,295.101,411.896,269.883z"/>
<path style="fill:#20AB6C;" d="M328.621,0H82.438c-8.733,0-15.813,7.08-15.813,15.813v25.78c0,8.733,7.08,15.813,15.813,15.813
	H328.62c8.733,0,15.813-7.08,15.813-15.813v-25.78C344.434,7.08,337.354,0,328.621,0z"/>
<g>
	<path style="fill:#394049;" d="M136.797,138.208c-4.143,0-7.5-3.357-7.5-7.5v-12.084c0-4.143,3.357-7.5,7.5-7.5s7.5,3.357,7.5,7.5
		v12.084C144.297,134.851,140.94,138.208,136.797,138.208z"/>
	<path style="fill:#394049;" d="M274.263,138.208c-4.143,0-7.5-3.357-7.5-7.5v-12.084c0-4.143,3.357-7.5,7.5-7.5s7.5,3.357,7.5,7.5
		v12.084C281.763,134.851,278.405,138.208,274.263,138.208z"/>
</g>
<g>
	<path style="fill:#E8A8C2;" d="M146.303,160.263H127.29c-4.143,0-7.5-3.357-7.5-7.5s3.357-7.5,7.5-7.5h19.013
		c4.143,0,7.5,3.357,7.5,7.5C153.803,156.905,150.445,160.263,146.303,160.263z"/>
	<path style="fill:#E8A8C2;" d="M283.769,160.263h-19.013c-4.143,0-7.5-3.357-7.5-7.5s3.357-7.5,7.5-7.5h19.013
		c4.142,0,7.5,3.357,7.5,7.5C291.269,156.905,287.911,160.263,283.769,160.263z"/>
</g>
<path style="fill:#394049;" d="M216.63,149.308c-4.157,0-8-1.37-11.101-3.684c-3.101,2.314-6.942,3.684-11.1,3.684
	c-10.256,0-18.6-8.344-18.6-18.6c0-4.143,3.357-7.5,7.5-7.5s7.5,3.357,7.5,7.5c0,1.984,1.615,3.6,3.6,3.6c1.984,0,3.6-1.615,3.6-3.6
	c0-4.143,3.357-7.5,7.5-7.5s7.5,3.357,7.5,7.5c0,1.984,1.615,3.6,3.601,3.6c1.984,0,3.6-1.615,3.6-3.6c0-4.143,3.357-7.5,7.5-7.5
	s7.5,3.357,7.5,7.5C235.23,140.964,226.886,149.308,216.63,149.308z"/>
<g>
</g>
<g>
</g>
<g>
</g>
<g>
</g>
<g>
</g>
<g>
</g>
<g>
</g>
<g>
</g>
<g>
</g>
<g>
</g>
<g>
</g>
<g>
</g>
<g>
</g>
<g>
</g>
<g>
</g>
</svg>
